<svg width="23" height="23" viewBox="0 0 23 23" fill="none" xmlns="http://www.w3.org/2000/svg">
<path fill-rule="evenodd" clip-rule="evenodd" d="M9.21152 5.8305C8.77835 6.43138 8.62502 7.18175 8.62502 7.66667V8.625H14.375V7.66667C14.375 7.18079 14.2217 6.43138 13.7895 5.8305C13.3918 5.2785 12.7209 4.79167 11.5 4.79167C10.2791 4.79167 9.60827 5.2785 9.21152 5.8305ZM16.2917 8.625V7.66667C16.2917 6.87413 16.0617 5.70783 15.3449 4.71117C14.5916 3.66562 13.3458 2.875 11.5 2.875C9.65427 2.875 8.40844 3.66562 7.65519 4.71117C6.93835 5.70783 6.70835 6.87413 6.70835 7.66667V8.625H2.87502C2.62085 8.625 2.3771 8.72597 2.19738 8.90569C2.01765 9.08541 1.91669 9.32917 1.91669 9.58333C1.91669 9.8375 2.01765 10.0813 2.19738 10.261C2.3771 10.4407 2.62085 10.5417 2.87502 10.5417H2.96606L3.83815 19.2625C3.8619 19.4989 3.97262 19.718 4.14881 19.8774C4.325 20.0368 4.55411 20.125 4.79169 20.125H18.2084C18.4459 20.125 18.675 20.0368 18.8512 19.8774C19.0274 19.718 19.1381 19.4989 19.1619 19.2625L20.034 10.5417H20.125C20.3792 10.5417 20.6229 10.4407 20.8027 10.261C20.9824 10.0813 21.0834 9.8375 21.0834 9.58333C21.0834 9.32917 20.9824 9.08541 20.8027 8.90569C20.6229 8.72597 20.3792 8.625 20.125 8.625H16.2917ZM8.62502 13.4167C8.62502 13.1625 8.52405 12.9187 8.34433 12.739C8.16461 12.5593 7.92085 12.4583 7.66669 12.4583C7.41252 12.4583 7.16877 12.5593 6.98904 12.739C6.80932 12.9187 6.70835 13.1625 6.70835 13.4167V15.3333C6.70835 15.5875 6.80932 15.8313 6.98904 16.011C7.16877 16.1907 7.41252 16.2917 7.66669 16.2917C7.92085 16.2917 8.16461 16.1907 8.34433 16.011C8.52405 15.8313 8.62502 15.5875 8.62502 15.3333V13.4167ZM12.4584 13.4167C12.4584 13.1625 12.3574 12.9187 12.1777 12.739C11.9979 12.5593 11.7542 12.4583 11.5 12.4583C11.2459 12.4583 11.0021 12.5593 10.8224 12.739C10.6427 12.9187 10.5417 13.1625 10.5417 13.4167V15.3333C10.5417 15.5875 10.6427 15.8313 10.8224 16.011C11.0021 16.1907 11.2459 16.2917 11.5 16.2917C11.7542 16.2917 11.9979 16.1907 12.1777 16.011C12.3574 15.8313 12.4584 15.5875 12.4584 15.3333V13.4167ZM16.2917 13.4167C16.2917 13.1625 16.1907 12.9187 16.011 12.739C15.8313 12.5593 15.5875 12.4583 15.3334 12.4583C15.0792 12.4583 14.8354 12.5593 14.6557 12.739C14.476 12.9187 14.375 13.1625 14.375 13.4167V15.3333C14.375 15.5875 14.476 15.8313 14.6557 16.011C14.8354 16.1907 15.0792 16.2917 15.3334 16.2917C15.5875 16.2917 15.8313 16.1907 16.011 16.011C16.1907 15.8313 16.2917 15.5875 16.2917 15.3333V13.4167Z" fill="#0E0E0E"/>
</svg>
