<svg width="198" height="38" viewBox="0 0 198 38" fill="none" xmlns="http://www.w3.org/2000/svg">
<path d="M1.13525 19.25C1.13525 17.5333 1.51859 16 2.28525 14.65C3.06859 13.2833 4.12692 12.225 5.46025 11.475C6.81025 10.7083 8.31859 10.325 9.98525 10.325C11.9353 10.325 13.6436 10.825 15.1103 11.825C16.5769 12.825 17.6019 14.2083 18.1853 15.975H14.1603C13.7603 15.1417 13.1936 14.5167 12.4603 14.1C11.7436 13.6833 10.9103 13.475 9.96025 13.475C8.94359 13.475 8.03525 13.7167 7.23525 14.2C6.45192 14.6667 5.83525 15.3333 5.38525 16.2C4.95192 17.0667 4.73525 18.0833 4.73525 19.25C4.73525 20.4 4.95192 21.4167 5.38525 22.3C5.83525 23.1667 6.45192 23.8417 7.23525 24.325C8.03525 24.7917 8.94359 25.025 9.96025 25.025C10.9103 25.025 11.7436 24.8167 12.4603 24.4C13.1936 23.9667 13.7603 23.3333 14.1603 22.5H18.1853C17.6019 24.2833 16.5769 25.675 15.1103 26.675C13.6603 27.6583 11.9519 28.15 9.98525 28.15C8.31859 28.15 6.81025 27.775 5.46025 27.025C4.12692 26.2583 3.06859 25.2 2.28525 23.85C1.51859 22.5 1.13525 20.9667 1.13525 19.25ZM26.4247 9.5V28H22.9247V9.5H26.4247ZM37.7827 28.225C36.4494 28.225 35.2494 27.9333 34.1827 27.35C33.116 26.75 32.2744 25.9083 31.6577 24.825C31.0577 23.7417 30.7577 22.4917 30.7577 21.075C30.7577 19.6583 31.066 18.4083 31.6827 17.325C32.316 16.2417 33.1744 15.4083 34.2577 14.825C35.341 14.225 36.5494 13.925 37.8827 13.925C39.216 13.925 40.4244 14.225 41.5077 14.825C42.591 15.4083 43.441 16.2417 44.0577 17.325C44.691 18.4083 45.0077 19.6583 45.0077 21.075C45.0077 22.4917 44.6827 23.7417 44.0327 24.825C43.3994 25.9083 42.5327 26.75 41.4327 27.35C40.3494 27.9333 39.1327 28.225 37.7827 28.225ZM37.7827 25.175C38.416 25.175 39.0077 25.025 39.5577 24.725C40.1244 24.4083 40.5744 23.9417 40.9077 23.325C41.241 22.7083 41.4077 21.9583 41.4077 21.075C41.4077 19.7583 41.0577 18.75 40.3577 18.05C39.6744 17.3333 38.8327 16.975 37.8327 16.975C36.8327 16.975 35.991 17.3333 35.3077 18.05C34.641 18.75 34.3077 19.7583 34.3077 21.075C34.3077 22.3917 34.6327 23.4083 35.2827 24.125C35.9494 24.825 36.7827 25.175 37.7827 25.175ZM48.4251 21.075C48.4251 19.6417 48.7168 18.3917 49.3001 17.325C49.8834 16.2417 50.6918 15.4083 51.7251 14.825C52.7584 14.225 53.9418 13.925 55.2751 13.925C56.9918 13.925 58.4084 14.3583 59.5251 15.225C60.6584 16.075 61.4168 17.275 61.8001 18.825H58.0251C57.8251 18.225 57.4834 17.7583 57.0001 17.425C56.5334 17.075 55.9501 16.9 55.2501 16.9C54.2501 16.9 53.4584 17.2667 52.8751 18C52.2918 18.7167 52.0001 19.7417 52.0001 21.075C52.0001 22.3917 52.2918 23.4167 52.8751 24.15C53.4584 24.8667 54.2501 25.225 55.2501 25.225C56.6668 25.225 57.5918 24.5917 58.0251 23.325H61.8001C61.4168 24.825 60.6584 26.0167 59.5251 26.9C58.3918 27.7833 56.9751 28.225 55.2751 28.225C53.9418 28.225 52.7584 27.9333 51.7251 27.35C50.6918 26.75 49.8834 25.9167 49.3001 24.85C48.7168 23.7667 48.4251 22.5083 48.4251 21.075ZM74.3142 28L69.6142 22.1V28H66.1142V9.5H69.6142V20.025L74.2642 14.15H78.8142L72.7142 21.1L78.8642 28H74.3142ZM101.664 14.15L97.6138 28H93.8388L91.3138 18.325L88.7888 28H84.9888L80.9138 14.15H84.4638L86.9138 24.7L89.5638 14.15H93.2638L95.8638 24.675L98.3138 14.15H101.664ZM107.083 12.5C106.466 12.5 105.949 12.3083 105.533 11.925C105.133 11.525 104.933 11.0333 104.933 10.45C104.933 9.86667 105.133 9.38333 105.533 9C105.949 8.6 106.466 8.4 107.083 8.4C107.699 8.4 108.208 8.6 108.608 9C109.024 9.38333 109.233 9.86667 109.233 10.45C109.233 11.0333 109.024 11.525 108.608 11.925C108.208 12.3083 107.699 12.5 107.083 12.5ZM108.808 14.15V28H105.308V14.15H108.808ZM119.316 28.225C118.182 28.225 117.166 28.025 116.266 27.625C115.366 27.2083 114.649 26.65 114.116 25.95C113.599 25.25 113.316 24.475 113.266 23.625H116.791C116.857 24.1583 117.116 24.6 117.566 24.95C118.032 25.3 118.607 25.475 119.291 25.475C119.957 25.475 120.474 25.3417 120.841 25.075C121.224 24.8083 121.416 24.4667 121.416 24.05C121.416 23.6 121.182 23.2667 120.716 23.05C120.266 22.8167 119.541 22.5667 118.541 22.3C117.507 22.05 116.657 21.7917 115.991 21.525C115.341 21.2583 114.774 20.85 114.291 20.3C113.824 19.75 113.591 19.0083 113.591 18.075C113.591 17.3083 113.807 16.6083 114.241 15.975C114.691 15.3417 115.324 14.8417 116.141 14.475C116.974 14.1083 117.949 13.925 119.066 13.925C120.716 13.925 122.032 14.3417 123.016 15.175C123.999 15.9917 124.541 17.1 124.641 18.5H121.291C121.241 17.95 121.007 17.5167 120.591 17.2C120.191 16.8667 119.649 16.7 118.966 16.7C118.332 16.7 117.841 16.8167 117.491 17.05C117.157 17.2833 116.991 17.6083 116.991 18.025C116.991 18.4917 117.224 18.85 117.691 19.1C118.157 19.3333 118.882 19.575 119.866 19.825C120.866 20.075 121.691 20.3333 122.341 20.6C122.991 20.8667 123.549 21.2833 124.016 21.85C124.499 22.4 124.749 23.1333 124.766 24.05C124.766 24.85 124.541 25.5667 124.091 26.2C123.657 26.8333 123.024 27.3333 122.191 27.7C121.374 28.05 120.416 28.225 119.316 28.225ZM142.264 20.775C142.264 21.275 142.23 21.725 142.164 22.125H132.039C132.122 23.125 132.472 23.9083 133.089 24.475C133.705 25.0417 134.464 25.325 135.364 25.325C136.664 25.325 137.589 24.7667 138.139 23.65H141.914C141.514 24.9833 140.747 26.0833 139.614 26.95C138.48 27.8 137.089 28.225 135.439 28.225C134.105 28.225 132.905 27.9333 131.839 27.35C130.789 26.75 129.964 25.9083 129.364 24.825C128.78 23.7417 128.489 22.4917 128.489 21.075C128.489 19.6417 128.78 18.3833 129.364 17.3C129.947 16.2167 130.764 15.3833 131.814 14.8C132.864 14.2167 134.072 13.925 135.439 13.925C136.755 13.925 137.93 14.2083 138.964 14.775C140.014 15.3417 140.822 16.15 141.389 17.2C141.972 18.2333 142.264 19.425 142.264 20.775ZM138.639 19.775C138.622 18.875 138.297 18.1583 137.664 17.625C137.03 17.075 136.255 16.8 135.339 16.8C134.472 16.8 133.739 17.0667 133.139 17.6C132.555 18.1167 132.197 18.8417 132.064 19.775H138.639ZM153.425 19.25C153.425 17.5333 153.809 16 154.575 14.65C155.359 13.2833 156.417 12.225 157.75 11.475C159.1 10.7083 160.609 10.325 162.275 10.325C164.225 10.325 165.934 10.825 167.4 11.825C168.867 12.825 169.892 14.2083 170.475 15.975H166.45C166.05 15.1417 165.484 14.5167 164.75 14.1C164.034 13.6833 163.2 13.475 162.25 13.475C161.234 13.475 160.325 13.7167 159.525 14.2C158.742 14.6667 158.125 15.3333 157.675 16.2C157.242 17.0667 157.025 18.0833 157.025 19.25C157.025 20.4 157.242 21.4167 157.675 22.3C158.125 23.1667 158.742 23.8417 159.525 24.325C160.325 24.7917 161.234 25.025 162.25 25.025C163.2 25.025 164.034 24.8167 164.75 24.4C165.484 23.9667 166.05 23.3333 166.45 22.5H170.475C169.892 24.2833 168.867 25.675 167.4 26.675C165.95 27.6583 164.242 28.15 162.275 28.15C160.609 28.15 159.1 27.775 157.75 27.025C156.417 26.2583 155.359 25.2 154.575 23.85C153.809 22.5 153.425 20.9667 153.425 19.25Z" fill="#0E0E0E"/>
<path d="M186.5 9.91666C181.229 9.91666 176.917 14.2292 176.917 19.5C176.917 24.7708 181.229 29.0833 186.5 29.0833C191.771 29.0833 196.083 24.7708 196.083 19.5C196.083 14.2292 191.771 9.91666 186.5 9.91666ZM191.292 20.4583H185.542V14.7083H186.979V19.0208H191.292V20.4583Z" fill="#0E0E0E"/>
</svg>
